<svg width="500" height="500" viewBox="0 0 500 500" fill="none" xmlns="http://www.w3.org/2000/svg">
<path fill-rule="evenodd" clip-rule="evenodd" d="M410.44 315.662C418.979 296.404 411.297 278.735 397.151 271.063C381.184 262.403 361.532 269.248 353.406 285.255C335.883 324.777 297.88 354.926 254.962 357.634C211.593 360.386 169.499 338.009 146.574 301.329C141.365 292.824 133.646 287.874 125.213 286.403C109.524 283.667 92.6162 293.332 87.5087 308.522C84.7527 316.72 85.6552 325.878 90.8693 334.413C125.052 390.259 189.844 426.659 256.396 422.356C322.183 418.075 383.542 376.325 410.44 315.662ZM180.337 109.373C179.884 93.4101 166.641 76.4437 147.427 77.3335C131.465 78.0573 115.015 90.7904 115.579 110.04C116.754 146.005 120.371 181.753 124.869 217.442C125.795 224.71 128.723 232.359 134.051 238.331C139.599 244.547 147.712 248.792 157.675 248.359C165.554 248.004 173.644 244.552 179.641 239.176C185.754 233.696 190.803 225.083 189.454 214.529C185.047 179.587 181.48 144.587 180.337 109.373ZM340.382 195.965C340.46 196.09 340.546 196.224 340.619 196.338L340.382 195.965Z" fill="#FF6900"/>
<path fill-rule="evenodd" clip-rule="evenodd" d="M313.219 118.705C280.764 120.823 248.928 140.5 235.213 171.5C229.486 184.387 229.576 205.262 247.847 214.923C254.909 218.661 263.64 219.723 271.525 218.06C280.715 216.121 288.364 210.398 292.351 201.849C297.226 190.656 308.3 181.46 321.166 183.557C328.974 184.834 336.163 189.218 340.382 195.965L340.619 196.338C349.874 210.843 370.319 217.113 385.25 207.514C398.841 198.749 406.267 179.523 396.335 163.259C378.248 134.868 346.991 117.953 313.219 118.705Z" fill="#FF6900"/>
</svg>
