<svg width="260" height="92" viewBox="0 0 260 92" fill="none" xmlns="http://www.w3.org/2000/svg">
<path d="M257.774 35.9803C257.774 33.3642 257.318 31.1727 256.48 29.3488L256.475 29.3413L256.472 29.3332C255.611 27.4244 254.412 25.8636 252.87 24.6157L252.857 24.6052L252.844 24.5942C251.299 23.3072 249.357 22.3085 246.958 21.6397L246.935 21.6339L246.913 21.627C244.544 20.9164 241.822 20.5442 238.724 20.5442C238.373 20.5442 237.83 20.5904 237.057 20.7125L237.003 20.7206L236.949 20.727C236.231 20.8068 235.438 20.928 234.568 21.0937L234.522 21.1024L234.476 21.1093C234.275 21.1395 234.074 21.171 233.873 21.2036L233.851 21.2071C233.643 21.241 233.43 21.2766 233.219 21.3135C232.8 21.3868 232.38 21.4656 231.961 21.5495L231.914 21.5587L231.866 21.5662C231.801 21.5766 231.735 21.5867 231.671 21.5967L231.553 21.615C231.496 21.6238 231.44 21.6325 231.384 21.6411C231.353 21.6459 231.323 21.6506 231.293 21.6553C230.894 23.1509 230.483 24.5804 230.057 25.9419C229.802 26.7583 229.542 27.5508 229.276 28.3192C229.173 28.6279 229.069 28.9346 228.962 29.2383C228.21 31.3667 227.35 33.383 226.379 35.2839L226.375 35.2931L226.37 35.3023C225.255 37.439 223.975 39.4418 222.528 41.308C221.124 43.1755 219.48 44.9784 217.601 46.719L216.399 47.8342L214.931 47.1008C213.519 46.3943 212.045 45.1009 212.045 43.0103C212.045 42.6391 212.101 42.2911 212.184 41.9773L212.247 41.7609C212.404 41.2619 212.639 40.7968 212.894 40.3774C212.956 40.2755 213.024 40.1672 213.099 40.054C213.585 39.327 214.134 38.5876 214.744 37.837L214.771 37.8034L214.799 37.771C215.115 37.4098 215.431 37.0557 215.744 36.7085C216.057 36.3615 216.373 36.0174 216.69 35.6777C217.145 35.1899 217.462 34.802 217.671 34.5076C218.459 32.2966 219.119 29.8747 219.647 27.237L219.65 27.2202L219.654 27.2029C219.968 25.7409 220.199 24.2086 220.343 22.6045C220.428 21.6513 220.483 20.673 220.507 19.6697V19.654C220.516 19.2742 220.521 18.8907 220.521 18.5036V11.5389C220.521 9.58179 220.081 8.08033 219.325 6.91511L219.305 6.88443L219.286 6.85263C218.485 5.53015 217.413 4.47101 216.035 3.65866L216.005 3.64073L215.974 3.62106C214.749 2.84734 213.325 2.2369 211.68 1.80774L210.915 1.62496C208.952 1.18621 206.922 0.964996 204.822 0.964996C201.926 0.964996 199.096 1.35196 196.326 2.12587L196.315 2.12934L196.304 2.13223C194.092 2.72633 192.209 3.42487 190.634 4.21162V79.4414L190.64 79.8697C190.647 80.1463 190.665 80.4146 190.69 80.6746C190.752 81.3125 190.865 81.906 191.022 82.458C191.225 83.1687 191.507 83.8203 191.865 84.4185C192.049 84.717 192.242 85.0049 192.446 85.2826C193.219 86.3399 194.14 87.2615 195.215 88.051C196.651 89.0295 198.245 89.7699 200.01 90.2686C200.98 90.5369 201.932 90.7335 202.865 90.8597C203.497 90.9455 204.121 90.9995 204.736 91.0225L205.439 91.0344C209.126 91.032 212.314 90.4569 215.046 89.3647L215.056 89.3606C217.195 88.5172 218.972 87.4913 220.422 86.3061C219.968 85.5344 219.532 84.7194 219.115 83.8599C218.372 82.3277 217.723 80.7498 217.167 79.1269L217.153 79.0884L217.142 79.0505C216.974 78.5009 216.816 77.9489 216.668 77.3939C216.425 76.4829 216.21 75.5649 216.022 74.6409L216.011 74.5864L215.897 74.0024C215.779 73.3793 215.681 72.7616 215.605 72.1509C215.551 71.7191 215.507 71.2909 215.474 70.8656L215.448 70.5186C215.442 70.4167 215.437 70.316 215.431 70.2147C215.431 70.2011 215.43 70.188 215.429 70.175L215.428 70.1496L215.425 70.1004L215.422 70.0418C215.419 69.979 215.417 69.9162 215.414 69.854L215.403 69.5188C215.403 69.5111 215.403 69.5051 215.403 69.4986C215.403 69.4897 215.402 69.4826 215.402 69.4767L215.403 69.488L215.402 69.4595C215.398 69.2718 215.395 69.0834 215.395 68.8969V67.3474L222.955 64.0401L223.276 67.2846C223.654 71.1031 224.405 74.4928 225.506 77.4709C226.609 80.4531 228.015 82.92 229.694 84.9125C231.371 86.9014 233.296 88.4176 235.473 89.4915C237.53 90.4457 239.812 90.9669 242.349 91.0291C242.517 91.0326 242.693 91.035 242.863 91.035C245.564 91.035 247.849 90.6601 249.76 89.9653L250.13 89.8243C252.22 88.9708 253.869 87.8591 255.136 86.5199C256.476 85.1061 257.461 83.4732 258.097 81.6033L258.104 81.5832L258.111 81.5636C258.756 79.769 259.106 77.8612 259.149 75.8285L259.153 75.402L259.15 75.0413C259.118 73.236 258.845 71.3768 258.318 69.4589L258.312 69.4376L258.307 69.4163C258.117 68.6706 257.888 67.9285 257.622 67.1905C257.285 66.2576 256.886 65.3301 256.425 64.4067C255.172 64.1923 254.003 63.9625 252.919 63.7178L252.903 63.7143C252.536 63.6284 252.171 63.5396 251.812 63.4466C251.16 63.2784 250.523 63.0983 249.902 62.9082C249.582 62.8105 249.263 62.7086 248.947 62.6031C247.706 62.1897 246.487 61.7301 245.291 61.2237L245.256 61.2089L245.221 61.1935C244.002 60.6308 242.77 59.9787 241.524 59.2407L237.157 56.6521L241.946 54.9672C243.321 54.4834 244.646 53.9217 245.921 53.2823C246.444 53.02 246.96 52.7441 247.467 52.4552C247.708 52.3177 247.947 52.1773 248.184 52.0346C250.106 50.8326 251.771 49.442 253.191 47.8643C253.731 47.2667 254.227 46.6411 254.677 45.9926C255.354 45.0153 255.934 43.9761 256.416 42.8726C256.418 42.8669 256.422 42.8599 256.425 42.8515L256.431 42.8379L256.573 42.5024C257.248 40.8617 257.648 39.0399 257.748 37.0168C257.758 36.8242 257.764 36.6306 257.768 36.4361C257.769 36.4326 257.769 36.429 257.769 36.425L257.774 35.9803Z" fill="#E7000B"/>
<path fill-rule="evenodd" clip-rule="evenodd" d="M95.4672 67.4599C99.2342 67.4599 102.689 67.0417 105.844 66.2226C108.963 65.4123 111.589 64.1951 113.765 62.6042C114.599 61.9782 115.356 61.2917 116.04 60.5448C116.448 58.6945 117.021 56.9245 117.774 55.2487L117.793 55.2036L117.815 55.1596C118.568 53.5223 119.446 51.9855 120.455 50.5601C120.544 49.7991 120.6 49.0039 120.619 48.1735L120.627 47.472C120.627 46.6785 120.594 45.897 120.528 45.1271C120.514 44.9591 120.499 44.7917 120.481 44.625L120.425 44.1264C120.391 43.8537 120.353 43.5777 120.311 43.308C119.998 41.2848 119.451 39.3342 118.672 37.4527L118.402 36.8257C117.846 35.5784 117.201 34.3931 116.468 33.2679C116.192 32.8441 115.902 32.4286 115.601 32.0214C115.308 31.6256 115.002 31.2378 114.684 30.8571L114.676 30.8478C114.614 30.7742 114.553 30.7005 114.49 30.6275L114.217 30.3122C113.691 29.7164 113.134 29.1399 112.544 28.5822L112.005 28.0853L111.748 27.854C109.074 25.4803 105.823 23.5847 101.956 22.1896L101.946 22.1861L101.936 22.1827C97.9915 20.7187 93.5026 19.965 88.4373 19.965C83.7054 19.9651 79.2247 20.7322 74.981 22.2567L74.1914 22.5505L74.1825 22.554C71.2335 23.6966 68.5534 25.2061 66.1356 27.0818L66.0823 27.1246L66.0717 27.1316L66.0166 27.1755C65.7151 27.4119 65.4172 27.6544 65.1234 27.9026C64.71 28.2514 64.3043 28.6119 63.9069 28.9842C63.7197 29.1615 63.5355 29.3415 63.3531 29.5238L63.3418 29.5349L63.3306 29.5458C61.7859 31.0944 60.3969 32.8315 59.1661 34.7631L59.1022 34.8643L59.0832 34.8944C58.9411 35.1199 58.8007 35.349 58.6627 35.5798C57.8293 36.9736 57.0724 38.4656 56.393 40.0579L56.0821 40.8364C56.0258 40.9816 55.9707 41.1275 55.9166 41.2743C55.8861 41.3569 55.8562 41.4399 55.8263 41.523C55.7965 41.6062 55.7671 41.6897 55.7378 41.7735C55.7098 41.8538 55.6821 41.9344 55.6546 42.0152L55.6262 42.098L55.6231 42.1069C55.6033 42.1645 55.5835 42.2222 55.5643 42.2801C55.5112 42.4403 55.4598 42.6017 55.4088 42.7637C55.3683 42.8921 55.3287 43.0211 55.2896 43.1507C54.7068 45.0828 54.2733 47.1406 53.9945 49.328C53.9326 49.8135 53.8781 50.3053 53.8314 50.8036C53.8251 50.871 53.819 50.9384 53.8131 51.0059C53.8071 51.0738 53.8013 51.1417 53.7955 51.2096C53.6783 52.593 53.6191 54.025 53.6191 55.5061L53.629 56.5501C53.6635 58.2912 53.7853 59.9715 53.9916 61.5867L54.0018 61.666C54.0098 61.7282 54.018 61.7904 54.0263 61.8526L54.0304 61.8828L54.0316 61.8929C54.0533 62.054 54.0769 62.2192 54.1004 62.3792C54.2442 63.3582 54.4199 64.3136 54.6273 65.2453C54.7658 65.8678 54.9187 66.4802 55.0854 67.0826C55.4072 68.2446 55.7813 69.3694 56.2076 70.4569C56.3818 70.8898 56.5624 71.3163 56.7502 71.7356C58.4643 75.5683 60.7452 78.8414 63.59 81.5789C66.7895 84.573 70.6578 86.9042 75.2333 88.555C79.5179 90.0594 84.3202 90.8756 89.6615 90.9721C98.7512 91.0462 109 90.4454 118.5 86C116.128 83.6276 115.687 73.0962 115.5 70C109.419 73.1827 102.343 75.1555 95.5329 75.1555C93.4386 75.1555 91.3454 74.992 89.2558 74.6669L89.2309 74.6633L89.2055 74.6586C87.1573 74.2943 85.3034 73.8566 83.6539 73.3378L83.6243 73.3289L83.5953 73.3188C81.9528 72.7555 80.5183 72.1141 79.3467 71.3684L79.3148 71.3483L79.2846 71.3269C78.1645 70.5635 76.804 69.2877 76.804 67.3983C76.804 67.0245 76.8413 66.6508 76.9018 66.2859L76.9237 66.1538L76.961 66.0247C77.1641 65.3122 77.5645 64.6263 78.219 64.1027L79.5055 63.0739L80.9181 63.9215C82.6488 64.9598 84.7864 65.8228 87.3694 66.4796L87.8598 66.5981C90.3166 67.172 92.851 67.4599 95.4672 67.4599ZM95.5371 46.3736C95.5371 47.8165 94.9448 49.0911 93.8443 50.0222L93.8372 50.0274L93.8301 50.0332C93.788 50.0685 93.7454 50.1031 93.7021 50.1361L93.6962 50.1405L93.6903 50.1448L93.685 50.1494L93.6115 50.2049C92.6467 50.9111 91.4911 51.1678 90.4066 51.2258C90.2337 51.2351 90.059 51.2397 89.8825 51.2397C88.75 51.2397 87.6673 51.1118 86.6793 50.803L86.6166 50.7834L86.5544 50.7602C85.7749 50.468 85.0624 50.1471 84.4588 49.785L83.0942 48.966L83.3364 47.3933C83.5603 45.9357 84.1331 44.5967 85.1601 43.5387L85.3715 43.3311C86.6402 42.1391 88.2477 41.6393 89.9488 41.6393C90.0246 41.6393 90.0992 41.6402 90.1733 41.6422L90.3936 41.6508L90.4345 41.6531C90.4676 41.655 90.502 41.6572 90.5346 41.6595C90.5414 41.66 90.5482 41.6604 90.555 41.6609C90.561 41.6613 90.5677 41.6617 90.5737 41.6621C90.5829 41.6628 90.5922 41.6634 90.6015 41.6641C90.6114 41.6649 90.6213 41.6658 90.6312 41.6667C90.6432 41.6678 90.6552 41.669 90.6672 41.6702C90.6803 41.6715 90.6933 41.6728 90.7063 41.674L90.7395 41.6769L90.7833 41.6809C90.7987 41.6823 90.8141 41.6838 90.8301 41.6855L90.8603 41.6889L90.9048 41.6942C91.0327 41.7092 91.16 41.7274 91.2868 41.7491C91.2927 41.7502 91.2992 41.751 91.3051 41.752C91.3082 41.7526 91.3114 41.7532 91.3147 41.7539C91.3195 41.7548 91.3245 41.7558 91.3294 41.7566L91.3389 41.7584L91.3531 41.7609C91.3596 41.7622 91.3665 41.7634 91.3734 41.7646L91.381 41.766C91.3975 41.7691 91.4147 41.7723 91.4313 41.7756L91.4768 41.7846L91.4994 41.789L91.5302 41.7953L91.5533 41.8001L91.5669 41.803C91.6149 41.8132 91.6629 41.824 91.7109 41.8354L91.7375 41.8415L91.7452 41.8432C91.7576 41.8461 91.7703 41.849 91.7825 41.8521C91.8293 41.8636 91.8755 41.876 91.9217 41.8885L91.9419 41.8939C91.9513 41.8963 91.9602 41.8987 91.9697 41.9013L91.9922 41.9076L92.0046 41.9111C92.0141 41.9138 92.0242 41.9166 92.0337 41.9194L92.0431 41.9223L92.0574 41.9265C92.0793 41.933 92.1006 41.9395 92.1213 41.9458L92.1432 41.9524C92.148 41.9539 92.1533 41.9554 92.1586 41.957L92.1746 41.962L92.2078 41.9724C92.3215 42.009 92.44 42.0507 92.5531 42.0944C92.8297 42.2016 93.0986 42.3287 93.3574 42.4768C93.3847 42.4917 93.4113 42.5075 93.438 42.5235L93.4504 42.5309L93.4682 42.5415L93.4789 42.5462L93.5162 42.5676L93.5535 42.5907C94.5497 43.2106 95.1776 44.1572 95.4198 45.2555C95.5027 45.6318 95.5371 46.0078 95.5371 46.3736Z" fill="#E7000B"/>
<path fill-rule="evenodd" clip-rule="evenodd" d="M121.844 68.1358C121.844 71.9093 122.437 75.1592 123.566 77.93C123.791 78.4536 124.03 78.96 124.286 79.4504C125.379 81.5507 126.759 83.3648 128.425 84.909L128.825 85.2626C130.848 87.0021 133.231 88.3448 136.001 89.2807C137.051 89.6301 138.146 89.9203 139.286 90.1507C140.685 90.4327 142.154 90.6228 143.693 90.7205C143.734 90.7235 143.775 90.7259 143.816 90.7282L143.884 90.7318L144.071 90.7424C144.135 90.7454 144.197 90.749 144.261 90.7519C144.353 90.7566 144.448 90.7608 144.54 90.765L144.585 90.7667L144.607 90.7678L144.617 90.7682C144.628 90.7687 144.639 90.7691 144.65 90.7697C145.082 90.7857 145.519 90.7946 145.963 90.7963L146.162 90.7981C148.454 90.7975 150.7 90.5725 152.904 90.1241C153.835 89.934 154.651 89.7089 155.364 89.4578L155.333 89.4045C155.324 89.3903 155.315 89.3758 155.307 89.3613C155.3 89.3502 155.293 89.3391 155.287 89.3281C155.281 89.3173 155.274 89.3063 155.268 89.2952C155.263 89.2869 155.258 89.2784 155.254 89.27C154.72 88.3217 154.358 87.2651 154.358 86.1374C154.358 85.0481 154.658 83.9139 155.482 82.987L155.529 82.9348L155.578 82.8857C156.55 81.9137 157.806 81.6004 158.962 81.6004H160.582L161.17 83.1107C161.68 84.4221 162.356 85.5409 163.189 86.4892L163.499 86.8007C163.51 86.8112 163.52 86.8216 163.531 86.8318C163.542 86.843 163.554 86.8542 163.565 86.8653C163.592 86.8909 163.618 86.9161 163.644 86.9412C163.667 86.9626 163.689 86.9838 163.712 87.0051L163.722 87.0145L163.733 87.0252C163.769 87.0589 163.806 87.0924 163.842 87.1255C163.883 87.1629 163.924 87.2 163.965 87.2367C163.997 87.2645 164.028 87.2917 164.06 87.3196L164.09 87.3451C164.458 87.6661 164.837 87.9628 165.226 88.2341C165.55 88.4597 165.882 88.6688 166.222 88.8625C167.245 89.4222 168.306 89.8511 169.408 90.1502L169.885 90.2704L169.933 90.2816C170.507 90.4291 171.082 90.5452 171.661 90.6293C172.264 90.717 172.87 90.7709 173.48 90.7904L174.027 90.7981C175.985 90.7963 177.907 90.47 179.801 89.8125C181.527 89.2137 183.061 88.3229 184.418 87.1348L184.694 86.8866C184.979 86.6236 185.252 86.3453 185.517 86.0533C184.65 83.905 184.258 81.6063 184.258 79.2395V40.2678C183.939 38.6507 183.49 37.1339 182.915 35.7139L182.911 35.7041C181.729 32.7503 180.01 30.2754 177.75 28.2449L177.249 27.8076C174.744 25.6586 171.534 23.9633 167.547 22.7714L167.54 22.7691C163.861 21.6576 159.517 21.0451 154.476 20.9719H154.459L153.432 20.965C150.29 20.9654 147.359 21.157 144.635 21.5342C141.897 21.9193 139.39 22.3876 137.111 22.9362L137.08 22.9432C134.835 23.4516 132.876 24.0165 131.195 24.6315L131.179 24.6373L131.163 24.6425C129.867 25.0964 128.766 25.5178 127.854 25.9052C127.662 26.4401 127.51 27.053 127.411 27.755L127.335 28.5677C127.335 28.5691 127.334 28.5742 127.334 28.5757C127.266 29.4252 127.231 30.2742 127.231 31.1248L127.244 32.0671C127.244 32.0652 127.244 32.0689 127.244 32.0671C127.244 32.0689 127.245 32.0762 127.245 32.078C127.258 32.5266 127.281 32.9734 127.312 33.4188L127.318 33.4963L127.323 33.5705C127.324 33.5942 127.326 33.6178 127.328 33.6415L127.338 33.7733C127.413 34.6853 127.526 35.5907 127.678 36.4896C127.776 37.0693 127.891 37.6468 128.022 38.2219C128.178 38.8569 128.345 39.4556 128.522 40.0185C128.717 40.6372 128.925 41.2097 129.14 41.7381C131.136 40.8229 133.287 40.1139 135.587 39.6066C138.729 38.9135 141.879 38.5655 145.033 38.5655C146.399 38.5655 147.746 38.6111 149.071 38.7026C150.422 38.7957 151.658 38.9612 152.764 39.211C153.902 39.4258 154.993 39.7983 155.908 40.432C156.955 41.128 157.849 42.2573 157.849 43.8256C157.849 44.446 157.72 45.0617 157.551 45.6233L156.909 47.7645L154.221 47.1254L154.206 47.1219C153.678 47.003 153.059 46.8812 152.343 46.7563C151.55 46.6384 150.572 46.5354 149.397 46.4515L149.355 46.4486L149.314 46.444C148.19 46.3237 146.875 46.2606 145.361 46.2606C142.077 46.2606 138.982 46.7117 136.066 47.6025C133.252 48.4759 130.805 49.8132 128.698 51.608L128.678 51.6243C128.55 51.7308 128.418 51.8449 128.293 51.9551C127.564 52.6005 126.887 53.3097 126.264 54.0848C125.267 55.3244 124.399 56.7413 123.666 58.3452L123.66 58.363L123.433 58.8889C122.899 60.2009 122.492 61.6514 122.224 63.2494C122.028 64.4192 121.906 65.6665 121.862 66.995C121.85 67.3688 121.844 67.749 121.844 68.1358ZM160.279 62.6826V60.3134H153.114C152.94 60.3134 152.759 60.3187 152.587 60.3306C152.041 60.3679 151.494 60.4692 150.964 60.6682L150.738 60.76C150.131 61.0224 149.575 61.4145 149.125 61.9535L149.119 61.9623L149.112 61.97C148.351 62.8999 147.985 64.0075 147.985 65.1785C147.985 66.6657 148.561 68.1968 150.099 69.0758L150.159 69.1089C150.263 69.1646 150.369 69.2161 150.476 69.2659C150.478 69.2665 150.482 69.2689 150.483 69.27C150.486 69.2712 150.496 69.276 150.5 69.2777C150.503 69.2794 150.507 69.2813 150.511 69.2833C150.517 69.2864 150.525 69.2898 150.533 69.2937L150.543 69.2979L150.557 69.3038C150.571 69.3099 150.585 69.3159 150.599 69.3218C150.61 69.3265 150.624 69.3322 150.636 69.3374C150.643 69.3403 150.65 69.3432 150.656 69.3459C150.658 69.3467 150.66 69.3475 150.663 69.3483C150.665 69.3491 150.668 69.3499 150.67 69.3506C151.451 69.6835 152.279 69.8582 153.129 69.902L153.161 69.9038L153.196 69.9044H153.204C153.327 69.9097 153.451 69.9133 153.574 69.9133C154.022 69.9133 154.464 69.8848 154.895 69.8238C155.154 69.7877 155.41 69.7391 155.664 69.6764C155.827 69.6361 155.987 69.5911 156.143 69.5407C156.876 69.3038 157.564 68.9437 158.17 68.4373L158.177 68.4314C158.191 68.4194 158.201 68.4108 158.209 68.4039C158.21 68.4027 158.212 68.4007 158.214 68.399C158.225 68.3893 158.24 68.3768 158.251 68.3668L158.273 68.347C158.275 68.345 158.278 68.3423 158.281 68.3396L158.299 68.3242L158.324 68.3019C158.356 68.274 158.387 68.2461 158.417 68.2175C159.9 66.8215 160.279 64.694 160.279 62.6826ZM150.613 69.3281C150.608 69.3263 150.604 69.3238 150.599 69.3218C150.591 69.3184 150.583 69.3156 150.579 69.3139L150.592 69.3198L150.599 69.3218L150.613 69.3281Z" fill="#E7000B"/>
<path d="M39.6041 57.2603V44.9697H48.3566C48.9098 42.0984 49.7161 39.3624 50.7894 36.7736L50.8114 36.7128L50.8496 36.6289C51.4395 35.2474 52.0844 33.9142 52.7861 32.6315C52.7053 30.8333 52.4161 29.0275 51.9115 27.2113L51.9046 27.1864L51.8982 27.1615C51.4581 25.4323 50.8352 23.8628 50.0381 22.4417H37.6328V5.91936C36.1355 5.64021 34.734 5.42699 33.4273 5.2785C31.634 5.06995 29.836 4.965 28.0446 4.965C25.7218 4.965 23.4455 5.09192 21.2152 5.34442C19.6124 5.5259 18.2716 5.7255 17.1791 5.9373C16.9377 6.66565 16.6694 7.49616 16.3757 8.43086L16.3728 8.44069L16.3699 8.44993C15.8879 9.93972 15.3837 11.4954 14.8579 13.1165C14.3266 14.7549 13.7944 16.329 13.2615 17.8387C12.7273 19.3524 12.2481 20.6108 11.8253 21.5972L11.576 22.1791L11.0693 22.5591C9.65511 23.6198 8.02571 24.8076 6.1841 26.1232C4.62104 27.267 3.04015 28.3466 1.44168 29.363C1.29066 30.1663 1.15306 31.1268 1.0339 32.2538C0.90807 33.8142 0.847656 35.1834 0.847656 36.3669C0.847662 38.2358 0.950911 40.0818 1.15653 41.9052C1.31194 43.0152 1.50582 44.0581 1.73725 45.0356H16.3491L16.8887 46.6557C17.0524 47.1469 17.142 47.6622 17.142 48.1931C17.142 49.5959 16.5278 50.8237 15.4057 51.6653C14.2645 52.5213 12.8027 52.7308 11.4875 52.7308H9.78293V69.3489C9.78293 73.1626 10.3231 76.3681 11.3354 79.0157C12.3576 81.6454 13.7868 83.7878 15.6046 85.4918C17.441 87.2136 19.6325 88.5095 22.2136 89.3713L22.7168 89.5306C25.252 90.3006 28.0731 90.6986 31.198 90.6986C37.9222 90.6986 42.7331 89.1723 45.9695 86.4566C49.1248 83.8091 50.8391 79.9023 50.8391 74.3425C50.8391 74.1352 50.8348 73.9285 50.8282 73.7212C50.7483 73.5304 50.6691 73.3385 50.5916 73.146L50.5829 73.1253L50.5743 73.1022C49.9313 71.4645 49.3903 69.7753 48.9478 68.0387C48.7999 68.0381 48.6507 68.0357 48.5053 68.0304C48.1716 68.018 47.8476 67.9937 47.526 67.9564C45.415 67.7106 43.5471 66.8997 42.1086 65.4101L42.0808 65.3811C40.2434 63.4123 39.6041 60.5012 39.6041 57.2603Z" fill="#E7000B"/>
</svg>
